<svg height="500" preserveAspectRatio="xMidYMid meet" version="1.0" viewBox="0 0 375 374.999991"
    width="500" xmlns="http://www.w3.org/2000/svg" zoomAndPan="magnify">
    <defs>
        <clipPath id="8c7a847a92">
            <path clip-rule="nonzero"
                d="M 112 4.65625 L 262 4.65625 L 262 80 L 112 80 Z M 112 4.65625 " />
        </clipPath>
        <clipPath id="78376b09b9">
            <path clip-rule="nonzero"
                d="M 35 94 L 339 94 L 339 370.65625 L 35 370.65625 Z M 35 94 " />
        </clipPath>
    </defs>
    <g clip-path="url(#8c7a847a92)">
        <path
            d="M 186.753906 30.871094 C 213.246094 30.871094 234.800781 52.46875 234.800781 79.011719 L 261.125 79.011719 C 261.125 37.960938 227.804688 4.492188 186.753906 4.492188 C 145.699219 4.492188 112.382812 37.960938 112.382812 79.011719 L 138.707031 79.011719 C 138.707031 52.46875 160.261719 30.871094 186.753906 30.871094 Z M 186.753906 30.871094 "
            fill="#00aee3" fill-opacity="1" fill-rule="nonzero" />
    </g>
    <g clip-path="url(#78376b09b9)">
        <path
            d="M 338.132812 353.429688 L 308.429688 106.542969 C 307.609375 99.621094 301.683594 94.34375 294.691406 94.34375 L 78.816406 94.34375 C 71.820312 94.34375 65.898438 99.621094 65.074219 106.542969 L 35.375 353.429688 C 34.308594 362.332031 41.300781 370.246094 50.265625 370.246094 L 323.238281 370.246094 C 332.289062 370.246094 339.199219 362.414062 338.132812 353.429688 Z M 222.210938 167.625 C 230.851562 167.625 237.925781 174.714844 237.925781 183.371094 C 237.925781 192.027344 230.851562 199.117188 222.210938 199.117188 C 213.574219 199.117188 206.5 192.027344 206.5 183.371094 C 206.5 174.714844 213.492188 167.625 222.210938 167.625 Z M 151.378906 167.625 C 160.015625 167.625 167.089844 174.714844 167.089844 183.371094 C 167.089844 192.027344 160.015625 199.117188 151.378906 199.117188 C 142.738281 199.117188 135.664062 192.027344 135.664062 183.371094 C 135.664062 174.714844 142.65625 167.625 151.378906 167.625 Z M 186.753906 314.769531 C 141.421875 314.769531 104.484375 277.839844 104.484375 232.335938 L 126.695312 232.335938 C 126.695312 265.472656 153.597656 292.511719 186.753906 292.511719 C 219.910156 292.511719 246.8125 265.554688 246.8125 232.335938 L 269.023438 232.335938 C 269.023438 277.753906 232.085938 314.769531 186.753906 314.769531 Z M 186.753906 314.769531 "
            fill="#00aee3" fill-opacity="1" fill-rule="nonzero" />
    </g>
</svg>